#!OML:ASF H:\Terrain\Walking\May29\JustinRory\rory.ASF
:FULLY-SPECIFIED
:DEGREES
1695
root 11.5868 18.4023 -14.3939 -2.87226 -13.9248 2.63972
lowerback 0.293395 -0.110868 -3.737
upperback 0.667734 -0.152699 1.41832
thorax 0.53496 -0.0998356 3.55501
lowerneck -12.3616 -6.05319 -2.96523
upperneck 22.0755 -10.9242 12.0939
head 9.92349 -4.09437 3.32956
rclavicle 9.06955e-015 -5.56597e-015
rhumerus -24.6954 14.0177 -85.8418
rradius 90.3889
rwrist 13.7564
rhand -20.7017 36.8008
rfingers 7.12502
rthumb 5.66234 6.89646
lclavicle 9.06955e-015 -5.56597e-015
lhumerus -28.8984 -13.6895 91.1133
lradius 91.8374
lwrist -13.7347
lhand -18.6638 14.7644
lfingers 7.12502
lthumb 7.62969 44.6067
rfemur -6.5478 10.7952 8.08173
rtibia 18.0745
rfoot -6.94169 -14.4135
rtoes 4.35459
lfemur -3.42474 0.441588 -21.9422
ltibia 17.6867
lfoot -12.7129 12.311
ltoes -1.89512
1696
root 11.5688 18.4039 -14.3961 -2.6938 -14.0525 2.6277
lowerback -0.0743957 0.390527 -3.50267
upperback 0.352263 0.527373 1.02481
thorax 0.361945 0.251296 3.01872
lowerneck -11.2322 -6.42148 -2.35134
upperneck 21.7466 -11.6125 12.4426
head 9.64361 -4.38982 3.28379
rclavicle -1.98536e-014 -8.34896e-015
rhumerus -25.8369 13.7911 -86.9624
rradius 89.5896
rwrist 13.9423
rhand -19.6787 37.569
rfingers 7.12502
rthumb 6.64997 7.69337
lclavicle -1.98536e-014 -8.34896e-015
lhumerus -29.3881 -16.2958 91.8843
lradius 92.7846
lwrist -14.3725
lhand -17.1946 14.1147
lfingers 7.12502
lthumb 9.04761 43.9007
rfemur -6.29877 10.6216 8.12882
rtibia 18.2713
rfoot -6.78039 -14.4862
rtoes 4.10487
lfemur -3.62684 0.572686 -21.8623
ltibia 17.7532
lfoot -12.8096 12.2477
ltoes -1.64124
1697
root 11.5531 18.402 -14.3997 -2.46778 -13.9972 2.69769
lowerback -0.412283 0.350031 -3.47232
upperback 0.33417 0.484855 1.00717
thorax 0.536602 0.227036 2.98579
lowerneck -11.647 -6.38426 -2.48764
upperneck 22.0138 -11.6049 12.5449
head 9.83319 -4.3558 3.33469
rclavicle -5.81445e-015 -7.95139e-015
rhumerus -25.9225 15.2345 -87.754
rradius 88.6522
rwrist 13.8013
rhand -17.452 37.9897
rfingers 7.12502
rthumb 8.79921 8.19318
lclavicle -5.81445e-015 -7.95139e-015
lhumerus -29.3016 -17.2253 92.3149
lradius 94.0279
lwrist -15.1021
lhand -14.6289 13.1048
lfingers 7.12502
lthumb 11.5227 42.768
rfemur -6.10442 10.1825 8.05704
rtibia 18.4589
rfoot -6.70927 -14.4487
rtoes 4.81491
lfemur -3.8929 0.614558 -21.8944
ltibia 17.7463
lfoot -12.7741 12.1297
ltoes -1.92287
1698
root 11.5351 18.396 -14.402 -2.73187 -13.6296 2.78809
lowerback -0.401111 0.164866 -3.46493
upperback 0.635252 0.239925 1.10253
thorax 0.858095 0.0932788 3.07881
lowerneck -12.3486 -6.29887 -3.04052
upperneck 22.1403 -11.4246 12.6912
head 10.0388 -4.26531 3.48559
rclavicle 3.3781e-014 -9.54166e-015
rhumerus -25.6879 16.8496 -88.2374
rradius 87.957
rwrist 13.7071
rhand -16.2268 38.5702
rfingers 7.12502
rthumb 9.98133 8.82683
lclavicle 3.3781e-014 -9.54166e-015
lhumerus -28.652 -17.7565 92.4846
lradius 95.2875
lwrist -15.4546
lhand -10.1573 12.1239
lfingers 7.12502
lthumb 15.8322 41.4966
rfemur -5.30292 9.83936 8.08124
rtibia 18.6475
rfoot -6.87703 -14.5434
rtoes 5.31806
lfemur -3.6101 0.547386 -21.9334
ltibia 17.7107
lfoot -12.599 11.9204
ltoes -3.7833
1699
root 11.5116 18.3941 -14.4023 -2.91305 -13.5147 2.90612
lowerback -0.399859 0.345192 -3.40922
upperback 0.814246 0.48308 0.95472
thorax 1.02354 0.209933 2.89848
lowerneck -12.8235 -6.48256 -3.18833
upperneck 22.0657 -11.734 13.0337
head 10.1695 -4.36473 3.57367
rclavicle 2.91965e-015 1.59028e-015
rhumerus -25.7978 17.215 -88.7403
rradius 87.4552
rwrist 13.6508
rhand -15.7926 39.7248
rfingers 7.12502
rthumb 10.4003 10.002
lclavicle 2.91965e-015 1.59028e-015
lhumerus -27.9785 -19.1285 92.2604
lradius 96.4124
lwrist -15.3797
lhand -10.3901 12.6244
lfingers 7.12502
lthumb 15.6079 42.0147
rfemur -4.62254 9.74516 8.06936
rtibia 18.779
rfoot -7.2742 -14.418
rtoes 6.6854
lfemur -3.38965 0.68241 -21.9652
ltibia 17.6927
lfoot -12.5197 11.689
ltoes -4.92111
1700
root 11.4875 18.3982 -14.4077 -2.72397 -13.6519 2.8877
lowerback -0.480968 0.390651 -3.25904
upperback 0.772184 0.545237 0.880307
thorax 1.02305 0.243166 2.73851
lowerneck -13.2275 -6.48479 -3.30633
upperneck 22.1451 -11.7973 13.3007
head 10.3116 -4.35332 3.67005
rclavicle -1.04362e-015 -1.19271e-015
rhumerus -25.9584 17.914 -89.4754
rradius 86.8512
rwrist 13.3768
rhand -15.1899 40.7072
rfingers 7.12502
rthumb 10.9816 11.0144
lclavicle -1.04362e-015 -1.19271e-015
lhumerus -27.5375 -19.8413 91.5416
lradius 97.7302
lwrist -15.2907
lhand -10.1614 12.3123
lfingers 7.12502
lthumb 15.8282 41.6852
rfemur -4.40099 9.7802 8.15505
rtibia 18.8584
rfoot -7.47255 -14.1669
rtoes 7.77883
lfemur -3.59416 0.94878 -21.8363
ltibia 17.7096
lfoot -12.4902 11.5155
ltoes -5.10133
1701
root 11.46 18.4013 -14.4179 -2.59643 -13.6105 2.72838
lowerback -0.342772 -0.0814808 -3.11499
upperback 0.851281 -0.0929337 1.21784
thorax 1.07279 -0.0785063 2.9968
lowerneck -14.1677 -6.15041 -4.10791
upperneck 22.5941 -11.1787 13.2421
head 10.6355 -4.08271 3.86231
rclavicle -6.51641e-015 2.38542e-015
rhumerus -25.863 20.099 -90.0284
rradius 86.355
rwrist 12.6295
rhand -14.866 41.4432
rfingers 7.12502
rthumb 11.294 11.7672
lclavicle -6.51641e-015 2.38542e-015
lhumerus -26.9254 -18.8019 90.9019
lradius 99.0857
lwrist -15.4045
lhand -9.7704 11.7419
lfingers 7.12502
lthumb 16.2047 41.0846
rfemur -4.04078 9.8855 8.4637
rtibia 18.9449
rfoot -7.04019 -14.1854
rtoes 6.37788
lfemur -3.71793 1.09342 -21.5378
ltibia 17.6886
lfoot -12.3185 11.3633
ltoes -5.54806
1702
root 11.4298 18.4003 -14.4241 -2.58043 -13.4986 2.71889
lowerback -0.350069 0.0173421 -3.11021
upperback 0.6769 0.0391521 1.07433
thorax 0.887925 -0.00587741 2.84769
lowerneck -13.6484 -6.21638 -3.53249
upperneck 22.4046 -11.3113 12.9661
head 10.4255 -4.15553 3.65345
rclavicle 2.30031e-014 -7.15625e-015
rhumerus -26.8734 19.9204 -90.8864
rradius 86.351
rwrist 11.8624
rhand -14.4428 42.0263
rfingers 7.12502
rthumb 11.7021 12.3732
lclavicle 2.30031e-014 -7.15625e-015
lhumerus -26.7809 -19.731 90.4637
lradius 100.186
lwrist -15.3339
lhand -10.0448 11.6853
lfingers 7.12502
lthumb 15.9405 41.0493
rfemur -3.54826 9.87613 8.63018
rtibia 18.9858
rfoot -6.49823 -14.1355
rtoes 4.80625
lfemur -3.68968 1.09391 -21.4036
ltibia 17.5979
lfoot -12.2127 11.2293
ltoes -5.51965
1703
root 11.4046 18.3975 -14.4266 -2.59828 -13.4211 3.06084
lowerback -0.699597 0.211074 -3.38278
upperback 0.615691 0.312729 0.876812
thorax 1.00122 0.128666 2.80223
lowerneck -12.9898 -6.33731 -3.22688
upperneck 21.9966 -11.4755 12.9153
head 10.1446 -4.25758 3.56926
rclavicle -4.26517e-014 -7.95139e-016
rhumerus -27.4614 19.3618 -91.3687
rradius 86.251
rwrist 11.0801
rhand -14.1553 42.5267
rfingers 7.12502
rthumb 11.9793 12.8895
lclavicle -4.26517e-014 -7.95139e-016
lhumerus -26.4486 -20.5796 89.8974
lradius 101.314
lwrist -15.311
lhand -10.6638 11.7578
lfingers 7.12502
lthumb 15.3443 41.1685
rfemur -3.04362 9.79165 8.34672
rtibia 18.8681
rfoot -6.33081 -13.8633
rtoes 5.5244
lfemur -3.71621 0.896074 -21.7043
ltibia 17.5705
lfoot -12.2859 11.292
ltoes -5.22268
1704
root 11.3857 18.3938 -14.4251 -2.67199 -13.1171 3.49951
lowerback -0.902738 0.382352 -3.57183
upperback 0.587269 0.551981 0.728826
thorax 1.06822 0.246642 2.76125
lowerneck -12.669 -6.56142 -3.5382
upperneck 21.7197 -11.718 13.0698
head 10.0356 -4.40395 3.64555
rclavicle 8.7838e-015 -1.98785e-015
rhumerus -27.8828 18.7157 -91.4214
rradius 86.121
rwrist 10.197
rhand -14.7243 43.0483
rfingers 7.12502
rthumb 11.4306 13.3799
lclavicle 8.7838e-015 -1.98785e-015
lhumerus -25.9203 -21.155 89.2136
lradius 102.507
lwrist -15.1906
lhand -11.2541 11.2838
lfingers 7.12502
lthumb 14.7757 40.7371
rfemur -2.38873 9.44802 7.92789
rtibia 18.6399
rfoot -5.89862 -13.5622
rtoes 5.02047
lfemur -3.73945 0.395843 -22.1642
ltibia 17.6377
lfoot -12.4512 11.4402
ltoes -4.60118
